<svg xmlns="http://www.w3.org/2000/svg" viewBox="0 0 512 512">
<rect width="512" height="512" rx="96" fill="#101827"/>
<path d="M116 94h190c52 0 90 38 90 90v234H168c-38 0-68-30-68-68V110c0-9 7-16 16-16z" fill="#6d44ce"/>
<path d="M148 126h174c22 0 40 18 40 40v214H170c-12 0-22-10-22-22V126z" fill="#13243a"/>
<path d="M188 178c58-46 115-46 172 0M188 246c58 42 115 42 172 0M188 314c58-31 115-31 172 0" stroke="#bffcff" stroke-width="18" fill="none" stroke-linecap="round"/>
<circle cx="256" cy="246" r="58" fill="#c7ff5f"/><path d="M236 246l24 24 44-62" stroke="#111827" stroke-width="18" fill="none" stroke-linecap="round" stroke-linejoin="round"/>
</svg>
