<svg xmlns="http://www.w3.org/2000/svg" viewBox="0 0 900 1600">
<defs><radialGradient id="g" cx="50%" cy="12%" r="70%"><stop offset="0" stop-color="#6cf7e5" stop-opacity=".9"/><stop offset=".42" stop-color="#a965ff" stop-opacity=".45"/><stop offset="1" stop-color="#07111f"/></radialGradient><filter id="blur"><feGaussianBlur stdDeviation="18"/></filter></defs>
<rect width="900" height="1600" fill="url(#g)"/>
<g opacity=".28" stroke="#dbffff" stroke-width="9" fill="none" stroke-linecap="round">
<path d="M450 80 C380 220 520 220 450 360 C370 530 530 530 450 700 C350 910 550 910 450 1160"/>
<path d="M450 80 C210 260 170 520 280 740 C390 960 250 1130 125 1460"/>
<path d="M450 80 C690 260 730 520 620 740 C510 960 650 1130 775 1460"/>
</g>
<g opacity=".22" fill="#c8ff65">
<circle cx="160" cy="260" r="18"/><circle cx="760" cy="410" r="14"/><circle cx="220" cy="920" r="24"/><circle cx="700" cy="1080" r="20"/><circle cx="455" cy="1320" r="32"/>
</g>
</svg>
